<?xml version="1.0" encoding="utf-8"?>
<!-- Generator: Adobe Illustrator 21.0.2, SVG Export Plug-In . SVG Version: 6.00 Build 0)  -->
<svg version="1.1" id="Layer_1" xmlns="http://www.w3.org/2000/svg" xmlns:xlink="http://www.w3.org/1999/xlink" x="0px" y="0px"
	 viewBox="0 0 100 100" style="enable-background:new 0 0 100 100;" xml:space="preserve">
<path d="M50,5C25.2,5,5,25.2,5,50c0,24.8,20.2,45,45,45c24.8,0,45-20.2,45-45C95,25.2,74.8,5,50,5z M27,83.9V71c0-11,9-20,20-20h6
	c11,0,20,9,20,20v12.9C66.4,88.4,58.5,91,50,91S33.6,88.4,27,83.9z M50,47c-6.6,0-12-5.4-12-12s5.4-12,12-12c6.6,0,12,5.4,12,12
	S56.6,47,50,47z M77,80.8V71c0-11-7.4-20.3-17.6-23.1C63.4,45,66,40.3,66,35c0-8.8-7.2-16-16-16s-16,7.2-16,16
	c0,5.3,2.6,10,6.6,12.9C30.4,50.7,23,60,23,71v9.8C14.4,73.3,9,62.3,9,50C9,27.4,27.4,9,50,9s41,18.4,41,41
	C91,62.3,85.6,73.3,77,80.8z"/>
</svg>
